<svg width="36" height="36" viewBox="0 0 36 36" fill="none" xmlns="http://www.w3.org/2000/svg">
<path d="M0 18C0 8.05887 8.05887 0 18 0V0C27.9411 0 36 8.05887 36 18V18C36 27.9411 27.9411 36 18 36V36C8.05887 36 0 27.9411 0 18V18Z" fill="#2A2A2A"/>
<path d="M10.8081 7.45917C10.8011 7.46446 10.7651 7.4724 10.7249 7.47637C10.6639 7.48166 10.6514 7.48696 10.6445 7.51607C10.6389 7.53459 10.6209 7.58752 10.6057 7.63516C10.589 7.6828 10.5599 7.76881 10.5405 7.82703C10.5211 7.88526 10.5003 7.9448 10.4934 7.95936C10.4865 7.97391 10.4768 8.007 10.4712 8.03214C10.4671 8.05728 10.4573 8.08374 10.4518 8.09168C10.4463 8.0983 10.4366 8.13667 10.431 8.17373C10.4255 8.2121 10.4171 8.2465 10.4102 8.25047C10.4047 8.25444 10.395 8.28885 10.3894 8.32987C10.3853 8.36957 10.3756 8.40529 10.3686 8.40926C10.3617 8.41323 10.352 8.4569 10.3478 8.50586C10.3423 8.55482 10.334 8.59981 10.3284 8.60775C10.3187 8.62231 10.2924 8.80227 10.2702 9.00473C10.2508 9.1741 10.2605 10.0607 10.2813 10.0858C10.2896 10.0951 10.3007 10.1533 10.3062 10.2155C10.3118 10.2777 10.3201 10.3333 10.327 10.3412C10.3326 10.3478 10.3423 10.3902 10.3478 10.4338C10.3534 10.4775 10.3617 10.5185 10.3686 10.5265C10.3742 10.5331 10.3839 10.5688 10.3894 10.6059C10.395 10.6416 10.4033 10.6773 10.4102 10.6853C10.4158 10.6919 10.4255 10.721 10.4296 10.7501C10.4352 10.7779 10.4449 10.811 10.4532 10.8229C10.4726 10.856 10.5211 11.0002 10.5211 11.0253C10.5211 11.0372 10.5086 11.0558 10.4934 11.0664C10.4504 11.0955 10.2771 11.2913 10.1579 11.4448C10.0983 11.5216 10.0456 11.5904 10.0387 11.5983C10.0332 11.6049 10.0124 11.6354 9.99434 11.6645C9.97631 11.6936 9.95691 11.72 9.95275 11.724C9.94443 11.7293 9.78362 11.9873 9.74204 12.0601C9.73372 12.0747 9.68797 12.1607 9.64084 12.252C9.56043 12.4042 9.53132 12.465 9.4731 12.5974C9.46201 12.6225 9.44676 12.6529 9.44122 12.6635C9.43428 12.6754 9.42458 12.7045 9.41904 12.7297C9.41349 12.7548 9.40379 12.7813 9.39824 12.7892C9.3927 12.7958 9.37468 12.8474 9.35804 12.9017C9.34141 12.956 9.322 13.0115 9.31507 13.0234C9.30813 13.0354 9.2915 13.1042 9.27902 13.1756C9.26655 13.2471 9.2513 13.3106 9.24575 13.3185C9.24021 13.3251 9.2305 13.3648 9.22635 13.4045C9.2208 13.4442 9.2111 13.4892 9.20417 13.5038C9.18892 13.5382 9.16396 13.6811 9.14733 13.8412C9.1404 13.91 9.12792 13.9841 9.1196 14.0066C9.09881 14.0648 9.08911 14.8667 9.10574 15.1512C9.12931 15.5654 9.14871 15.8049 9.16258 15.8327C9.16951 15.8473 9.17921 15.9187 9.18337 15.9915C9.18892 16.0643 9.19862 16.1291 9.20417 16.1371C9.20971 16.1437 9.21941 16.194 9.22357 16.2482C9.22912 16.3011 9.23882 16.3554 9.24575 16.3673C9.25268 16.3792 9.26793 16.4692 9.2818 16.5671C9.29427 16.665 9.30952 16.751 9.31507 16.759C9.322 16.7656 9.33032 16.8013 9.33586 16.8384C9.34141 16.8741 9.35111 16.9098 9.35665 16.9178C9.36359 16.9244 9.3719 16.9588 9.37745 16.9945C9.38299 17.0289 9.3927 17.0594 9.39824 17.0633C9.40517 17.0673 9.41349 17.0951 9.41904 17.1268C9.42458 17.1573 9.43428 17.1877 9.43983 17.1957C9.44537 17.2023 9.45508 17.234 9.46062 17.2645C9.46617 17.2962 9.47449 17.324 9.48142 17.328C9.48835 17.3319 9.49667 17.3584 9.50221 17.3875C9.50776 17.4166 9.51607 17.4431 9.52301 17.4471C9.52855 17.451 9.53825 17.4735 9.54241 17.4987C9.54796 17.5238 9.56737 17.5715 9.58539 17.6059C9.6048 17.6389 9.62004 17.6733 9.62004 17.68C9.62004 17.6919 9.63807 17.7342 9.69629 17.8573C9.73649 17.9446 9.94443 18.3469 9.95136 18.3535C9.95552 18.3575 9.97215 18.3839 9.9874 18.413C10.0262 18.4858 10.2855 18.855 10.327 18.8974C10.3464 18.9159 10.4213 19.0019 10.4934 19.0879C10.6389 19.2626 10.9439 19.5603 11.102 19.6834C11.1574 19.727 11.2101 19.7694 11.2198 19.776C11.2392 19.7932 11.3529 19.8752 11.3945 19.9017C11.4111 19.9123 11.4333 19.9282 11.4416 19.9348C11.4499 19.9427 11.4818 19.9639 11.5123 19.9811C11.5428 19.9983 11.5705 20.0168 11.5747 20.0208C11.5788 20.0248 11.6218 20.0526 11.6717 20.0803C11.7216 20.1081 11.7715 20.1372 11.7826 20.1465C11.7937 20.1544 11.8256 20.1703 11.8519 20.1796C11.8783 20.1902 11.9254 20.2127 11.9559 20.2325C12.003 20.2616 12.4272 20.4654 12.5104 20.4985C12.5257 20.5038 12.5672 20.521 12.6033 20.5355C12.6393 20.5514 12.674 20.5633 12.6809 20.5633C12.6934 20.5633 12.7641 20.5924 12.8112 20.6176C12.8251 20.6242 12.8431 20.6295 12.8528 20.6295C12.8625 20.6308 12.8958 20.6414 12.9263 20.656C12.9568 20.6705 12.9956 20.6811 13.0136 20.6824C13.0303 20.6824 13.0441 20.6877 13.0441 20.6943C13.0441 20.7023 13.0718 20.7115 13.1065 20.7168C13.1412 20.7208 13.173 20.7301 13.1758 20.7367C13.18 20.742 13.2119 20.7512 13.2451 20.7565C13.2798 20.7605 13.3075 20.7698 13.3075 20.775C13.3075 20.7803 13.3311 20.7896 13.3602 20.7949C13.3879 20.8002 13.4184 20.8081 13.4253 20.8147C13.4337 20.82 13.4642 20.8293 13.4947 20.8333C13.5251 20.8386 13.5778 20.8518 13.6125 20.8611C13.7289 20.8941 13.8274 20.918 13.9383 20.9405C13.9993 20.9524 14.0866 20.9709 14.1323 20.9815C14.2224 21.0013 14.3139 21.0172 14.4997 21.049C14.849 21.1072 15.0625 21.1376 15.3065 21.1628C15.3869 21.172 15.4576 21.1826 15.4618 21.1866C15.4659 21.1906 15.4174 21.2448 15.355 21.307C15.1693 21.4949 15.154 21.5108 15.0833 21.6113C14.9877 21.7476 14.8934 21.913 14.8324 22.052C14.8171 22.0877 14.7977 22.1287 14.7908 22.1406C14.7825 22.1539 14.7769 22.1711 14.7769 22.179C14.7769 22.187 14.7686 22.2121 14.7575 22.2346C14.7326 22.2875 14.6799 22.4543 14.6799 22.4781C14.6799 22.4873 14.673 22.5059 14.666 22.5191C14.6577 22.531 14.6397 22.6223 14.6231 22.7202C14.5801 22.9955 14.5856 22.9769 14.5371 22.9955C14.5122 23.0047 14.4747 23.0206 14.4512 23.0312C14.429 23.0418 14.3929 23.0537 14.3722 23.059C14.35 23.063 14.3333 23.0722 14.3333 23.0775C14.3333 23.0841 14.3084 23.0921 14.2779 23.0974C14.2474 23.1026 14.2197 23.1106 14.2155 23.1172C14.2113 23.1238 14.1836 23.1318 14.1531 23.1371C14.1226 23.1423 14.0949 23.1503 14.0907 23.1569C14.0866 23.1622 14.0561 23.1715 14.0214 23.1754C13.9882 23.1807 13.9563 23.19 13.9521 23.1966C13.948 23.2019 13.9133 23.2112 13.8759 23.2164C13.8384 23.2217 13.8038 23.231 13.7996 23.2363C13.7955 23.2416 13.7539 23.2509 13.7067 23.2561C13.6596 23.2614 13.6111 23.2707 13.5986 23.2773C13.5764 23.2892 13.4267 23.3091 13.2105 23.3289C13.0718 23.3422 12.6587 23.3329 12.6352 23.3157C12.6282 23.3104 12.5686 23.3025 12.5049 23.2972C12.4397 23.2919 12.3801 23.2826 12.3732 23.2773C12.3648 23.2707 12.3246 23.2614 12.2858 23.2561C12.2456 23.2509 12.2096 23.2429 12.2054 23.2363C12.2013 23.231 12.1708 23.2217 12.1361 23.2178C12.1028 23.2125 12.071 23.2032 12.0668 23.1966C12.0626 23.1913 12.0349 23.182 12.0044 23.1768C11.9739 23.1715 11.949 23.1622 11.949 23.1556C11.949 23.149 11.9406 23.1437 11.9323 23.1437C11.9129 23.1437 11.7008 23.0431 11.619 22.9968C11.3529 22.8433 11.2018 22.7348 11.041 22.5839C10.9467 22.4953 10.8386 22.3841 10.7998 22.3365C10.7609 22.2888 10.7221 22.2412 10.7124 22.2306C10.6667 22.1817 10.6182 22.1102 10.6182 22.093C10.6182 22.0824 10.6126 22.0692 10.6043 22.0652C10.5974 22.0613 10.5641 22.0149 10.5322 21.962C10.5003 21.9091 10.4671 21.8601 10.4587 21.8522C10.4518 21.8442 10.4074 21.7847 10.3617 21.7225C10.3159 21.659 10.266 21.5928 10.2508 21.5769C10.2355 21.5597 10.1884 21.5095 10.1468 21.4631C10.0401 21.3467 9.83353 21.1495 9.75174 21.0834C9.71431 21.0529 9.6644 21.0132 9.64084 20.9947C9.61866 20.9749 9.5743 20.9431 9.5438 20.9233C9.5133 20.9034 9.48558 20.8849 9.48142 20.8796C9.47726 20.8756 9.43428 20.8492 9.38438 20.8214C9.33447 20.7923 9.28595 20.7618 9.27625 20.7526C9.26655 20.7433 9.2513 20.7354 9.24437 20.7354C9.23744 20.7354 9.20694 20.7208 9.17783 20.7023C9.14733 20.6851 9.10574 20.6665 9.08495 20.6612C9.06415 20.656 9.03088 20.644 9.01147 20.6348C8.99207 20.6242 8.96434 20.6163 8.95187 20.6163C8.93939 20.6163 8.92553 20.611 8.92137 20.6044C8.91582 20.5977 8.88671 20.5885 8.85344 20.5832C8.82156 20.5779 8.78967 20.5686 8.78135 20.5633C8.73422 20.5263 8.23378 20.5064 8.05357 20.5342C7.94682 20.5501 7.80404 20.5911 7.80404 20.6057C7.80404 20.611 7.79572 20.6163 7.78463 20.6163C7.77354 20.6163 7.75136 20.6321 7.73611 20.6507C7.69591 20.6996 7.69591 20.8121 7.73888 20.8915C7.77493 20.9616 7.97039 21.1641 8.05634 21.2197C8.08961 21.2408 8.11872 21.262 8.12288 21.266C8.13674 21.2805 8.36963 21.4102 8.3835 21.4102C8.39181 21.4102 8.40013 21.4142 8.4029 21.4195C8.40568 21.4261 8.44449 21.4539 8.49024 21.4817C8.61084 21.5571 8.77997 21.7225 8.95602 21.9355C8.99761 21.9858 9.03365 22.0282 9.03781 22.0321C9.04197 22.0361 9.0697 22.0745 9.1002 22.1181C9.13069 22.1618 9.15842 22.2002 9.16258 22.2042C9.18337 22.224 9.23189 22.2981 9.23189 22.31C9.23189 22.3166 9.23744 22.3233 9.24298 22.3233C9.24991 22.3233 9.27209 22.359 9.29289 22.4026C9.31507 22.4476 9.33863 22.49 9.34834 22.4992C9.36913 22.5217 9.39408 22.5601 9.41488 22.6011C9.42458 22.6197 9.43567 22.6369 9.43983 22.6408C9.44399 22.6448 9.46201 22.6739 9.48003 22.707C9.49805 22.7401 9.51746 22.7692 9.52301 22.7732C9.53825 22.7824 9.69767 23.0788 9.73926 23.1754C9.78224 23.276 9.79749 23.3117 9.82244 23.362C9.83214 23.3832 9.84462 23.4176 9.85016 23.4374C9.85432 23.4586 9.86403 23.4745 9.87096 23.4745C9.87789 23.4745 9.88343 23.4811 9.88343 23.489C9.88343 23.5102 9.94304 23.6253 9.95691 23.6306C9.96245 23.6333 9.96661 23.6412 9.96661 23.6492C9.96661 23.6664 10.065 23.8238 10.0803 23.8291C10.0858 23.8318 10.0914 23.8397 10.0914 23.8463C10.0914 23.886 10.4227 24.2261 10.5572 24.324C10.5793 24.3399 10.6223 24.373 10.6528 24.3968C10.7291 24.459 10.7401 24.4669 10.7485 24.4669C10.7526 24.4669 10.7845 24.4854 10.8205 24.5093C10.8996 24.5595 11.1435 24.6786 11.1685 24.6786C11.1782 24.6786 11.1865 24.6839 11.1865 24.6919C11.1865 24.6985 11.2087 24.7078 11.235 24.713C11.2614 24.717 11.2863 24.7263 11.2905 24.7316C11.2947 24.7382 11.3224 24.7461 11.3529 24.7514C11.3834 24.7567 11.4083 24.7647 11.4083 24.7713C11.4083 24.7766 11.436 24.7858 11.4707 24.7898C11.504 24.7951 11.5359 24.8044 11.54 24.811C11.5442 24.8176 11.5761 24.8268 11.6093 24.8321C11.644 24.8361 11.6745 24.8454 11.6786 24.8507C11.6828 24.8573 11.7188 24.8652 11.759 24.8705C11.7979 24.8745 11.8436 24.8837 11.8589 24.8904C11.8921 24.9036 12.0335 24.9261 12.1985 24.9433C12.2636 24.9512 12.3662 24.9618 12.4286 24.9698C12.5742 24.987 13.2909 24.987 13.46 24.9698C13.5321 24.9618 13.6541 24.9499 13.7303 24.9433C13.8731 24.9301 14.0478 24.9076 14.2779 24.8705C14.35 24.8586 14.4318 24.848 14.4581 24.8467L14.5066 24.844L14.5149 25.1749C14.5288 25.6989 14.5288 27.4681 14.5149 27.476C14.5094 27.48 14.4997 27.5078 14.4941 27.5369C14.4761 27.648 14.3306 27.8293 14.2127 27.8902C14.1878 27.9034 14.167 27.918 14.167 27.9233C14.167 27.9299 14.1573 27.9338 14.1448 27.9338C14.1323 27.9338 14.1032 27.9431 14.0797 27.9537C14.0547 27.9643 13.9979 27.9775 13.9521 27.9841C13.8994 27.9921 15.416 27.9974 18 27.9974C20.4925 27.996 22.0923 27.9921 22.034 27.9854C21.9814 27.9788 21.9356 27.9669 21.9328 27.9603C21.9301 27.9524 21.9176 27.9471 21.9051 27.9471C21.8621 27.9471 21.772 27.8915 21.6847 27.8108C21.6362 27.7671 21.5974 27.7234 21.5974 27.7129C21.5974 27.7036 21.5918 27.6957 21.5849 27.6957C21.578 27.6957 21.5682 27.6785 21.5627 27.656C21.5572 27.6348 21.5488 27.6163 21.5419 27.6163C21.535 27.6163 21.5267 27.5964 21.5211 27.5726C21.517 27.5501 21.5059 27.5144 21.4989 27.4958C21.4892 27.4733 21.4837 26.7006 21.4823 25.2781C21.4809 23.6902 21.4754 23.0894 21.4643 23.0762C21.456 23.0656 21.4435 23.0047 21.4393 22.9386C21.4338 22.8737 21.4241 22.8142 21.4171 22.8062C21.4116 22.7996 21.4019 22.7573 21.3964 22.7136C21.3908 22.6699 21.3811 22.6276 21.3756 22.621C21.37 22.613 21.3548 22.5482 21.3409 22.4754C21.327 22.4026 21.3104 22.3378 21.3035 22.3299C21.2979 22.3233 21.2924 22.3087 21.2924 22.2968C21.2924 22.2862 21.2827 22.2597 21.2716 22.2399C21.2605 22.22 21.248 22.183 21.2425 22.1578C21.2383 22.1327 21.2286 22.1115 21.2217 22.1115C21.2148 22.1115 21.2092 22.1049 21.2092 22.097C21.2092 22.0837 21.1732 22.0004 21.1288 21.913C21.0983 21.8535 20.9306 21.5809 20.9112 21.5611C20.9042 21.5518 20.8696 21.5134 20.8349 21.475C20.8003 21.4367 20.724 21.3586 20.6644 21.3004C20.6062 21.2422 20.5618 21.1906 20.566 21.1866C20.5701 21.1826 20.6464 21.1707 20.7351 21.1628C20.9112 21.1442 21.1025 21.1191 21.2993 21.086C21.3686 21.0741 21.474 21.0569 21.535 21.0463C21.6653 21.0251 21.8289 20.9947 21.9162 20.9762C21.9509 20.9696 22.0285 20.9524 22.0895 20.9405C22.1505 20.9285 22.2295 20.91 22.2655 20.8994C22.3016 20.8888 22.3404 20.8809 22.3515 20.8809C22.3626 20.8809 22.4 20.873 22.4319 20.8624C22.4652 20.8518 22.5386 20.8306 22.5955 20.8161C22.6523 20.8002 22.7091 20.7817 22.7202 20.7764C22.7327 20.7698 22.7632 20.7605 22.7895 20.7552C22.8159 20.7499 22.845 20.7406 22.8519 20.7354C22.8602 20.7301 22.8921 20.7208 22.924 20.7155C22.9573 20.7102 22.9864 20.7023 22.9906 20.6957C22.9947 20.689 23.0224 20.6811 23.0529 20.6758C23.0834 20.6705 23.1084 20.6626 23.1084 20.656C23.1084 20.6507 23.1292 20.6414 23.1555 20.6374C23.1985 20.6295 23.2595 20.607 23.3191 20.5752C23.333 20.5686 23.351 20.5633 23.3579 20.5633C23.3662 20.5633 23.4023 20.5514 23.4383 20.5355C23.4744 20.521 23.5159 20.5038 23.5312 20.4972C23.6393 20.4535 23.9582 20.3013 24.04 20.255C24.0954 20.2233 24.1633 20.1902 24.1897 20.1796C24.216 20.169 24.2978 20.1227 24.3699 20.0777C24.442 20.0314 24.5141 19.9864 24.5279 19.9785C24.5764 19.948 24.8925 19.7204 24.9396 19.682C25.1282 19.5259 25.2918 19.3684 25.4512 19.1951C25.5163 19.1236 25.5759 19.0588 25.5829 19.0495C25.5912 19.0416 25.6134 19.0138 25.6328 18.9887C25.6536 18.9635 25.6841 18.9265 25.7021 18.9079C25.7201 18.8894 25.7478 18.8563 25.7645 18.8352C26.0015 18.5163 26.1498 18.2701 26.3093 17.9367C26.3564 17.8374 26.3633 17.8242 26.4021 17.7316C26.4479 17.6217 26.4784 17.5529 26.4895 17.5331C26.4964 17.5212 26.5061 17.4921 26.5117 17.4669C26.5172 17.4418 26.5269 17.414 26.5325 17.4074C26.538 17.3994 26.5477 17.373 26.5533 17.3478C26.5588 17.3227 26.5685 17.2949 26.574 17.2883C26.5796 17.2803 26.5893 17.2539 26.5948 17.2287C26.6004 17.2036 26.6101 17.1758 26.6156 17.1692C26.6212 17.1612 26.6309 17.1295 26.6364 17.0964C26.642 17.0633 26.6517 17.0302 26.6572 17.0236C26.6628 17.0157 26.678 16.9482 26.6905 16.8715C26.7044 16.7947 26.7196 16.7206 26.7265 16.7061C26.7335 16.6915 26.7459 16.6439 26.7543 16.6002C26.7626 16.5565 26.7792 16.4732 26.7903 16.4149C26.8541 16.0907 26.8887 15.8393 26.9081 15.5548C26.9151 15.445 26.9275 15.3233 26.9345 15.2822C26.9525 15.187 26.9539 14.2289 26.9359 14.1628C26.9289 14.135 26.9192 14.041 26.9137 13.9537C26.9081 13.8664 26.8998 13.7896 26.8957 13.7817C26.8901 13.775 26.879 13.7208 26.8693 13.6626C26.8444 13.5038 26.818 13.3728 26.8083 13.3582C26.8028 13.3503 26.7945 13.3132 26.7889 13.2762C26.7834 13.2378 26.7751 13.2034 26.7681 13.1994C26.7626 13.1955 26.7529 13.165 26.7473 13.1306C26.7418 13.0949 26.7335 13.0605 26.7265 13.0539C26.721 13.0459 26.7057 12.993 26.6933 12.9348C26.6794 12.8766 26.66 12.8104 26.6489 12.7866C26.6378 12.7641 26.6295 12.7363 26.6295 12.7257C26.6295 12.7138 26.624 12.7019 26.617 12.6979C26.6101 12.694 26.6004 12.6741 26.5962 12.6543C26.5879 12.6185 26.563 12.5656 26.5228 12.4888C26.513 12.4703 26.5047 12.4478 26.5047 12.4399C26.5047 12.4319 26.4895 12.4015 26.4701 12.3737C26.4521 12.3446 26.4326 12.3062 26.4271 12.2877C26.4229 12.2692 26.4132 12.2533 26.4063 12.2533C26.3994 12.2533 26.3938 12.2454 26.3938 12.2361C26.3938 12.2176 26.3869 12.2057 26.2566 11.9834C26.154 11.8087 25.9253 11.4766 25.8878 11.4461C25.8768 11.4369 25.8671 11.4223 25.8671 11.413C25.8671 11.4025 25.8629 11.3932 25.8573 11.3905C25.8504 11.3879 25.8061 11.3389 25.7561 11.282C25.7062 11.2238 25.6328 11.1444 25.5926 11.1034C25.5496 11.0611 25.5233 11.0227 25.526 11.0095C25.5302 10.9989 25.5371 10.9711 25.5427 10.9499C25.5482 10.9274 25.5565 10.9036 25.5621 10.897C25.5676 10.889 25.5773 10.8626 25.5829 10.8374C25.5884 10.8123 25.5981 10.7845 25.6037 10.7779C25.6106 10.7699 25.6189 10.7369 25.6245 10.7011C25.63 10.6667 25.6397 10.6389 25.6452 10.6389C25.6508 10.6389 25.6605 10.6032 25.666 10.5595C25.6716 10.5159 25.6813 10.4775 25.6868 10.4735C25.6924 10.4696 25.7021 10.4299 25.7076 10.3849C25.7118 10.3386 25.7215 10.2896 25.7284 10.275C25.7423 10.2486 25.7617 10.1004 25.7825 9.87146C25.7991 9.70737 25.7991 9.30775 25.7839 9.12382C25.7617 8.86182 25.7423 8.70038 25.7298 8.68053C25.7229 8.66862 25.7132 8.61701 25.7076 8.56408C25.7021 8.51115 25.6924 8.46616 25.6868 8.46219C25.6813 8.45822 25.6716 8.41985 25.666 8.37618C25.6605 8.33252 25.6508 8.29414 25.6452 8.29017C25.6383 8.2862 25.6286 8.25047 25.6245 8.21078C25.6189 8.16976 25.6092 8.13403 25.6023 8.13006C25.5953 8.12609 25.5898 8.11286 25.5898 8.09962C25.5898 8.07316 25.5385 7.90378 25.5219 7.87335C25.5149 7.86144 25.5052 7.83233 25.4997 7.80718C25.4941 7.78204 25.4844 7.75425 25.4789 7.74764C25.4734 7.7397 25.4636 7.71985 25.4581 7.70132C25.4539 7.6828 25.4332 7.62855 25.4137 7.57826C25.3846 7.50416 25.3735 7.48828 25.343 7.48299C25.3222 7.47902 25.2793 7.46976 25.246 7.46314C25.1711 7.44594 24.9466 7.44594 24.8911 7.46182C24.8676 7.46976 24.7858 7.48034 24.7095 7.48828C24.5473 7.50284 24.3962 7.52798 24.3768 7.54253C24.3699 7.54783 24.3283 7.55709 24.2867 7.56238C24.2451 7.56768 24.2049 7.57694 24.1966 7.58223C24.1897 7.58752 24.1592 7.59546 24.1314 7.60076C24.1037 7.60605 24.0621 7.61796 24.0413 7.62855C24.0205 7.63913 23.9887 7.64839 23.972 7.64839C23.9554 7.64839 23.9374 7.65369 23.9332 7.66163C23.9291 7.66824 23.9138 7.67486 23.9013 7.67486C23.8889 7.67486 23.8611 7.6828 23.8403 7.69339C23.8195 7.70397 23.7849 7.71588 23.7613 7.72117C23.7378 7.72647 23.7156 7.73573 23.7114 7.74235C23.7059 7.74896 23.692 7.75425 23.6795 7.75425C23.6671 7.75425 23.6379 7.76352 23.6158 7.7741C23.595 7.78469 23.57 7.79395 23.5631 7.79395C23.5506 7.79395 23.4896 7.81909 23.3371 7.88658C23.2914 7.90643 23.229 7.93289 23.1985 7.9448C23.0904 7.98979 22.7258 8.16843 22.6274 8.22533C22.5719 8.25709 22.5234 8.28356 22.5178 8.28356C22.5137 8.28356 22.443 8.32193 22.3598 8.36957C22.278 8.41588 22.199 8.45955 22.1851 8.46352C22.1491 8.47543 21.9273 8.60246 21.9051 8.62363C21.8954 8.63289 21.8788 8.64083 21.8677 8.64083C21.858 8.64083 21.8469 8.64613 21.8441 8.65142C21.8413 8.65671 21.815 8.67656 21.7845 8.69376C21.754 8.71097 21.7235 8.73081 21.7152 8.73743C21.657 8.7811 21.5142 8.86314 21.5073 8.85388C21.5045 8.84726 21.4712 8.838 21.4352 8.8327C21.3977 8.82741 21.3631 8.81947 21.3548 8.81286C21.3409 8.80227 21.2716 8.78507 21.126 8.75596C21.0844 8.74669 21.0442 8.73611 21.0359 8.73214C21.029 8.72684 20.9874 8.71891 20.9458 8.71361C20.9042 8.70832 20.864 8.70038 20.8557 8.69509C20.8418 8.68715 20.7171 8.66333 20.5577 8.63951C20.5078 8.63289 20.4579 8.62098 20.4454 8.61569C20.4343 8.60908 20.3747 8.59981 20.3137 8.59452C20.2541 8.58923 20.1986 8.57996 20.1903 8.57467C20.1834 8.56938 20.1293 8.56011 20.0725 8.55615C20.0156 8.55085 19.956 8.54159 19.9408 8.53497C19.9144 8.52439 19.8465 8.51512 19.5249 8.48204C19.0979 8.43705 17.5994 8.39868 17.4455 8.42779C17.4081 8.43441 17.2168 8.44764 17.0213 8.45558C16.8272 8.46484 16.6151 8.47675 16.55 8.48337C16.4862 8.48998 16.3684 8.50189 16.288 8.50983C16.2076 8.51645 16.1327 8.52703 16.1216 8.53365C16.1091 8.54027 16.0468 8.54953 15.983 8.55482C15.9178 8.56011 15.8596 8.56938 15.8513 8.57467C15.8444 8.57996 15.7917 8.58923 15.7362 8.59452C15.6822 8.59981 15.6337 8.60908 15.6295 8.61437C15.6253 8.61966 15.5768 8.62892 15.5186 8.63422C15.4618 8.63951 15.4119 8.64745 15.4077 8.65407C15.4035 8.65936 15.3606 8.66862 15.3107 8.67391C15.2608 8.67788 15.2178 8.68715 15.2136 8.69376C15.2095 8.69906 15.1693 8.70832 15.1235 8.71361C15.0778 8.71891 15.0376 8.72817 15.0334 8.73346C15.0292 8.73875 14.989 8.74802 14.9433 8.75331C14.8975 8.7586 14.8573 8.76787 14.8532 8.77316C14.849 8.77845 14.813 8.78771 14.7728 8.79301C14.734 8.7983 14.6952 8.80756 14.6868 8.81286C14.6799 8.81815 14.6383 8.83006 14.594 8.838L14.5163 8.85388L14.3652 8.76125C14.2834 8.70964 14.203 8.65936 14.1878 8.64745C14.1739 8.63686 14.1531 8.6276 14.1448 8.6276C14.1351 8.6276 14.1254 8.62231 14.1226 8.61701C14.1185 8.60511 13.8967 8.47675 13.8579 8.46484C13.844 8.45955 13.7802 8.42647 13.7151 8.38942C13.6513 8.35369 13.5917 8.32325 13.5848 8.32325C13.5764 8.32325 13.5709 8.31796 13.5709 8.31267C13.5709 8.30737 13.5543 8.29546 13.5335 8.28753C13.5113 8.27959 13.4544 8.25047 13.4045 8.22269C13.1619 8.09168 13.0358 8.03081 12.8154 7.93951C12.7211 7.89981 12.5714 7.83497 12.5423 7.81909C12.5284 7.81248 12.5104 7.80718 12.5007 7.80718C12.491 7.80586 12.4577 7.79528 12.4272 7.78072C12.3967 7.76616 12.3607 7.75558 12.3482 7.75425C12.3343 7.75425 12.3233 7.74896 12.3233 7.74235C12.3233 7.73573 12.2983 7.72647 12.2678 7.72117C12.2373 7.71588 12.2096 7.70794 12.2054 7.70132C12.2013 7.69471 12.1735 7.68677 12.143 7.68148C12.1125 7.67618 12.0848 7.66824 12.0807 7.66163C12.0765 7.65501 12.0488 7.64707 12.0183 7.64178C11.9878 7.63649 11.9601 7.62722 11.9559 7.62193C11.9517 7.61531 11.9199 7.60605 11.8866 7.60076C11.8519 7.59679 11.8214 7.58752 11.8173 7.58223C11.8131 7.57562 11.7771 7.56768 11.7369 7.56238C11.6981 7.55709 11.6579 7.54783 11.6495 7.54121C11.6412 7.53459 11.5941 7.52533 11.5456 7.52136C11.497 7.51607 11.4499 7.50681 11.4416 7.50151C11.4097 7.4777 10.8289 7.43932 10.8081 7.45917Z" fill="white"/>
</svg>
